<svg viewBox="54 111 177 177">
	<path fill="currentColor" d="M142.36,112.661c-48.234-0.012-87.347,39.083-87.359,87.32c-0.011,48.234,39.083,87.347,87.319,87.358
		c48.234,0.012,87.347-39.081,87.359-87.318c0-0.007,0-0.014,0-0.019C229.679,151.772,190.588,112.674,142.36,112.661z
		 M147.456,243.661c-6.686-0.179-12.641-4.28-15.188-10.466c-4.308-10.36-10.795-3.212-10.795-3.212
		c-5.291,5.13-13.74,4.996-18.87-0.298c-4.585-4.734-5.028-12.109-1.042-17.357c2.258-2.757,7.667-8.455,0.559-13.448
		c-3.792-2.896-4.519-8.317-1.622-12.112c2.896-3.792,8.319-4.519,12.111-1.62c2.202,1.679,3.463,4.313,3.393,7.082
		c-0.059,2.072-0.87,4.054-2.278,5.572l-0.249,0.249l-0.23,0.27c-1.345,1.554-4.599,6.217,2.942,9.242
		c3.43,1.035,6.284,3.433,7.897,6.631c3.667,7.896,8.866,3.771,10.877,1.679c0.206-0.25,0.436-0.498,0.662-0.704l0.209-0.271
		c6.547-6.658,17.254-6.744,23.91-0.194c6.658,6.548,6.744,17.253,0.197,23.909C156.657,241.951,152.137,243.777,147.456,243.661z
		 M177.276,204.889c-4.784,0-8.663-3.876-8.663-8.659l0,0c-0.011-1.179,0.229-2.344,0.706-3.421c3.75-8.183-3.274-8.764-3.274-8.764
		c-3.165-0.499-5.911-2.458-7.418-5.283c-3.047-6.217-9.014-1.948-11.583,0.372l-0.643,0.602c-2.447,2.193-5.623,3.397-8.91,3.377
		c-7.381,0.025-13.386-5.939-13.41-13.319c-0.024-7.381,5.939-13.388,13.321-13.412c4.905-0.017,9.425,2.658,11.774,6.963
		c4.437,8.704,9.989,4.144,11.813,2.673c1.855-1.586,4.211-2.466,6.651-2.487c5.722,0,10.361,4.64,10.361,10.36
		c-0.017,2.051-0.63,4.054-1.761,5.762c-3.668,6.859,2.777,7.874,4.497,8.661c4.371,1.942,6.341,7.06,4.398,11.432
		C183.752,202.854,180.679,204.87,177.276,204.889z"/>
</svg>
