<svg viewBox="0 0 16 16" fill="none" xmlns="http://www.w3.org/2000/svg">
    <path id="Vector"
        d="M15.826 13.173L9.11169 1.54346C8.6175 0.687492 7.38272 0.687179 6.88834 1.54346L0.174015 13.173C-0.320173 14.0289 0.296953 15.0985 1.2857 15.0985H14.7143C15.7027 15.0985 16.3204 14.0292 15.826 13.173ZM14.7143 13.9221H1.2857C1.20227 13.9221 1.15092 13.8335 1.19274 13.7611L7.90703 2.13162C7.94875 2.05934 8.05112 2.05918 8.09294 2.13162L14.8072 13.7611C14.849 13.8334 14.7979 13.9221 14.7143 13.9221Z"
        fill="currentColor" />
    <path id="Vector_2"
        d="M8.00002 5.78076C7.67521 5.78076 7.41187 6.04411 7.41187 6.36892V9.74049C7.41187 10.0653 7.67521 10.3286 8.00002 10.3286C8.32484 10.3286 8.58818 10.0653 8.58818 9.74049V6.36892C8.58821 6.04411 8.32487 5.78076 8.00002 5.78076Z"
        fill="currentColor" />
    <path id="Vector_3"
        d="M8.00002 11.0928C7.67521 11.0928 7.41187 11.3561 7.41187 11.6809V12.0322C7.41187 12.357 7.67521 12.6203 8.00002 12.6203C8.32484 12.6203 8.58818 12.357 8.58818 12.0322V11.6809C8.58821 11.3561 8.32487 11.0928 8.00002 11.0928Z"
        fill="currentColor" />
</svg>