<svg viewBox="0 0 20 20" fill="none" xmlns="http://www.w3.org/2000/svg">
    <path
        d="M16.875 9.25C17.2892 9.25 17.625 9.58579 17.625 10C17.625 10.4142 17.2892 10.75 16.875 10.75H3.125C2.71079 10.75 2.375 10.4142 2.375 10C2.375 9.58579 2.71079 9.25 3.125 9.25H16.875Z"
        fill="currentColor" />
    <path
        d="M10.7197 3.84467C11.0126 3.55178 11.4873 3.55178 11.7802 3.84467L17.4052 9.46967C17.6981 9.76256 17.6981 10.2373 17.4052 10.5302L11.7802 16.1552C11.4873 16.4481 11.0126 16.4481 10.7197 16.1552C10.4268 15.8623 10.4268 15.3876 10.7197 15.0947L15.8144 9.99994L10.7197 4.90522C10.4268 4.61232 10.4268 4.13756 10.7197 3.84467Z"
        fill="currentColor" />
</svg>
    