<svg viewBox="0 0 20 21" fill="none" xmlns="http://www.w3.org/2000/svg">
    <path
        d="M16.875 10.1387C17.2892 10.1387 17.625 10.4745 17.625 10.8887C17.625 11.3029 17.2892 11.6387 16.875 11.6387H3.125C2.71079 11.6387 2.375 11.3029 2.375 10.8887C2.375 10.4745 2.71079 10.1387 3.125 10.1387H16.875Z"
        fill="currentColor" />
    <path
        d="M8.21967 4.73334C8.51256 4.44045 8.98732 4.44045 9.28022 4.73334C9.57311 5.02624 9.57311 5.501 9.28022 5.79389L4.18549 10.8886L9.28022 15.9833C9.57311 16.2762 9.57311 16.751 9.28022 17.0439C8.98732 17.3368 8.51256 17.3368 8.21967 17.0439L2.59467 11.4189C2.30178 11.126 2.30178 10.6512 2.59467 10.3583L8.21967 4.73334Z"
        fill="currentColor" />
</svg>