<svg viewBox="0 0 20 20" fill="none" xmlns="http://www.w3.org/2000/svg">
    <path
        d="M12.948 15.1021C12.2258 16.353 11.1722 17.164 9.78719 17.5351C8.40219 17.9062 7.08423 17.7307 5.8333 17.0085C4.58238 16.2862 3.77136 15.2326 3.40025 13.8476C3.02914 12.4626 3.2047 11.1447 3.92692 9.89375L7.78109 3.21814C8.30192 2.31603 9.06037 1.73152 10.0564 1.46463C11.0525 1.19774 12.0016 1.32471 12.9037 1.84554C13.8058 2.36637 14.3903 3.12482 14.6572 4.12088C14.9241 5.11694 14.7971 6.06603 14.2763 6.96814L10.6304 13.2829C10.311 13.8362 9.84772 14.1942 9.24059 14.3569C8.63347 14.5195 8.05326 14.4412 7.49997 14.1217C6.94668 13.8023 6.58869 13.339 6.42601 12.7319C6.26333 12.1247 6.34172 11.5445 6.66116 10.9912L10.5153 4.31562L11.9587 5.14896L8.10454 11.8246C8.01426 11.9809 7.99073 12.1398 8.03394 12.301C8.07715 12.4623 8.17694 12.5881 8.3333 12.6783C8.48967 12.7686 8.64849 12.7921 8.80975 12.7489C8.97102 12.7057 9.09679 12.6059 9.18707 12.4496L12.8329 6.1348C13.1125 5.62268 13.1817 5.09325 13.0402 4.54651C12.8988 3.99978 12.5755 3.58058 12.0703 3.28892C11.5652 2.99725 11.0375 2.92513 10.4873 3.07256C9.93706 3.21998 9.51613 3.54629 9.22446 4.05147L5.3703 10.7271C4.86521 11.5741 4.7415 12.469 4.99916 13.4116C5.25681 14.3542 5.81264 15.072 6.66664 15.5651C7.50861 16.0512 8.39615 16.1667 9.32928 15.9116C10.2624 15.6565 10.9875 15.1089 11.5046 14.2687L15.5671 7.23229L17.0105 8.06562L12.948 15.1021Z"
        fill="currentColor" />
</svg>