<svg viewBox="0 0 7 16" fill="none" xmlns="http://www.w3.org/2000/svg">
    <path
        d="M1.50344 3.09231C1.50344 3.49468 1.50344 5.29065 1.50344 5.29065H0V7.9788H1.50344V15.967H4.59183V7.97903H6.66428C6.66428 7.97903 6.85837 6.69008 6.95246 5.28074C6.68271 5.28074 4.60351 5.28074 4.60351 5.28074C4.60351 5.28074 4.60351 3.71686 4.60351 3.44275C4.60351 3.16804 4.94023 2.79852 5.27304 2.79852C5.60523 2.79852 6.30634 2.79852 6.95571 2.79852C6.95571 2.43252 6.95571 1.16793 6.95571 0C6.08882 0 5.10258 0 4.66786 0C1.4271 -0.000185615 1.50344 2.69064 1.50344 3.09231Z"
        fill="currentColor" />
</svg>