<svg viewBox="0 0 24 24" fill="none" xmlns="http://www.w3.org/2000/svg">
    <path
        d="M20 9.33333V6C20 4.89543 19.1046 4 18 4H14.6667M20 9.33333H14.6667M20 9.33333V14.6667M4 9.33333V6C4 4.89543 4.89543 4 6 4H9.33333M4 9.33333H9.33333M4 9.33333V14.6667M14.6667 9.33333H9.33333M14.6667 9.33333V4M14.6667 9.33333V14.6667M9.33333 9.33333V4M9.33333 9.33333V14.6667M20 14.6667V18C20 19.1046 19.1046 20 18 20H14.6667M20 14.6667H14.6667M4 14.6667V18C4 19.1046 4.89543 20 6 20H9.33333M4 14.6667H9.33333M14.6667 14.6667H9.33333M14.6667 14.6667V20M9.33333 14.6667V20M9.33333 4H14.6667M9.33333 20H14.6667"
        stroke="currentColor" stroke-width="2" stroke-linecap="round" stroke-linejoin="round" />
</svg>