<svg viewBox="0 0 17 17" fill="none" xmlns="http://www.w3.org/2000/svg">
    <path fill-rule="evenodd" clip-rule="evenodd"
        d="M5.3125 0H11.6875C14.6211 0 17 2.37894 17 5.3125V11.6875C17 14.6211 14.6211 17 11.6875 17H5.3125C2.37894 17 0 14.6211 0 11.6875V5.3125C0 2.37894 2.37894 0 5.3125 0ZM11.6875 15.4062C13.7381 15.4062 15.4062 13.7381 15.4062 11.6875V5.3125C15.4062 3.26187 13.7381 1.59375 11.6875 1.59375H5.3125C3.26187 1.59375 1.59375 3.26187 1.59375 5.3125V11.6875C1.59375 13.7381 3.26187 15.4062 5.3125 15.4062H11.6875Z"
        fill="currentColor" />
    <path fill-rule="evenodd" clip-rule="evenodd"
        d="M4.25 8.5C4.25 6.15294 6.15294 4.25 8.5 4.25C10.8471 4.25 12.75 6.15294 12.75 8.5C12.75 10.8471 10.8471 12.75 8.5 12.75C6.15294 12.75 4.25 10.8471 4.25 8.5ZM5.84375 8.5C5.84375 9.96413 7.03587 11.1562 8.5 11.1562C9.96413 11.1562 11.1562 9.96413 11.1562 8.5C11.1562 7.03481 9.96413 5.84375 8.5 5.84375C7.03587 5.84375 5.84375 7.03481 5.84375 8.5Z"
        fill="currentColor" />
    <circle cx="13.0688" cy="3.93155" r="0.566312" fill="currentColor" />
</svg>