<svg version="1.0" xmlns="http://www.w3.org/2000/svg" viewBox="0 0 48 48">
<g transform="translate(0,48) scale(0.1,-0.1)"
fill="currentColor" stroke="none">
<path d="M235 435 c-32 -9 -58 -24 -72 -42 -25 -31 -30 -55 -10 -48 6 2 51 15
100 30 48 14 87 28 87 31 0 3 -5 14 -10 25 -12 22 -26 22 -95 4z"/>
<path d="M62 384 c-17 -11 -22 -25 -22 -57 0 -24 -7 -53 -16 -65 -14 -20 -14
-24 0 -44 9 -12 16 -42 16 -65 0 -35 5 -46 26 -59 17 -12 28 -14 36 -6 7 7 4
12 -10 16 -15 5 -21 19 -25 57 -4 28 -12 57 -18 65 -9 11 -9 17 0 28 6 8 14
36 18 64 4 39 10 52 25 55 11 3 17 10 13 16 -8 15 -17 14 -43 -5z"/>
<path d="M375 391 c-3 -6 4 -15 15 -21 14 -7 20 -21 20 -43 0 -18 7 -44 14
-59 13 -24 13 -32 0 -55 -7 -16 -14 -42 -14 -60 0 -23 -6 -36 -21 -44 -15 -7
-18 -14 -11 -21 8 -8 19 -6 36 6 21 13 26 24 26 59 0 23 7 53 16 65 14 20 14
24 0 44 -9 12 -16 41 -16 65 0 32 -5 46 -22 57 -26 18 -35 20 -43 7z"/>
<path d="M172 339 l-32 -10 61 -92 c34 -51 65 -95 68 -99 4 -4 23 -3 44 3 l37
10 -67 99 c-36 55 -69 100 -72 99 -3 0 -21 -5 -39 -10z"/>
<path d="M252 110 c-51 -15 -95 -30 -98 -33 -3 -3 1 -15 8 -27 14 -23 41 -22
116 3 35 12 77 56 71 75 -2 6 -42 -1 -97 -18z"/>
</g>
</svg>
