<svg viewBox="0 0 31 30" fill="none" xmlns="http://www.w3.org/2000/svg">
    <path fill-rule="evenodd" clip-rule="evenodd"
        d="M22.3918 15.8106C21.5082 15.8106 20.7911 15.0927 20.7911 14.2093C20.7911 13.9838 20.8369 13.771 20.9231 13.5784H20.9209C21.614 12.0656 20.3148 11.9555 20.3148 11.9555C19.705 11.867 19.1905 11.5029 18.9099 10.9791C18.3444 9.82149 17.2418 10.6187 16.7685 11.0481L16.7662 11.0503C16.7212 11.0915 16.6815 11.1282 16.6492 11.1605V11.1462C16.2142 11.5336 15.6471 11.7734 15.0185 11.7734C13.6527 11.7734 12.5448 10.6667 12.5448 9.30148C12.5448 7.93478 13.6527 6.82808 15.0185 6.82808C15.9539 6.82808 16.7595 7.35258 17.1795 8.11911C18.0008 9.72783 19.0247 8.90286 19.3645 8.61439C19.6983 8.33115 20.1243 8.15282 20.5961 8.15282C21.6537 8.15282 22.5118 9.01001 22.5118 10.0695C22.5118 10.4644 22.397 10.7941 22.1878 11.135L22.19 11.1335C21.5134 12.4013 22.7031 12.5886 23.0196 12.734H23.0173C23.5912 12.9797 23.9917 13.547 23.9917 14.2093C23.9917 15.0927 23.2761 15.8106 22.3918 15.8106ZM16.9093 22.9776C15.6334 22.9776 14.536 22.2111 14.05 21.1156L14.0485 21.1179C13.2016 19.2064 12.039 20.5769 12.039 20.5769V20.5701C11.5935 21.0249 10.9717 21.3029 10.2838 21.3029C8.91946 21.3029 7.81235 20.1977 7.81235 18.8325C7.81235 18.2975 7.98487 17.8075 8.27139 17.4029C8.26914 17.4036 8.26389 17.4044 8.26389 17.4044C8.66818 16.8821 9.63953 15.8054 8.30365 14.9175L8.3119 14.9167C7.91136 14.6253 7.64583 14.1562 7.64583 13.6205C7.64583 12.7393 8.36215 12.0215 9.24724 12.0215C10.1308 12.0215 10.8479 12.7393 10.8479 13.6205C10.8479 14.0198 10.6971 14.3803 10.4549 14.6597H10.4624C10.4624 14.6597 10.4436 14.6762 10.4166 14.7077C10.4024 14.7227 10.3904 14.7429 10.3746 14.7579C10.1316 15.0494 9.55402 15.9388 10.9642 16.4528C11.613 16.6326 12.1313 17.0575 12.4486 17.6367C13.1656 19.079 14.1047 18.29 14.4678 17.8952C14.506 17.8472 14.545 17.803 14.5855 17.761C14.608 17.7288 14.6238 17.7071 14.6238 17.7071L14.623 17.7161C15.1938 17.1054 16.0069 16.718 16.9093 16.718C18.6374 16.718 20.0371 18.12 20.0371 19.8478C20.0371 21.5757 18.6374 22.9776 16.9093 22.9776ZM15.5 0C7.21542 0 0.5 6.71587 0.5 15C0.5 23.2841 7.21542 30 15.5 30C23.7838 30 30.5 23.2841 30.5 15C30.5 6.71587 23.7838 0 15.5 0Z"
        fill="currentColor" />
</svg>