<?xml version="1.0" encoding="UTF-8"?>
<svg width="175px" height="40px" viewBox="0 0 175 40" version="1.1" xmlns="http://www.w3.org/2000/svg" xmlns:xlink="http://www.w3.org/1999/xlink">
    <title>Sklinet_logo_verzia_A</title>
    <g id="Symbols" stroke="none" stroke-width="1" fill="none" fill-rule="evenodd">
        <g id="Bottom" transform="translate(-713.000000, -233.000000)" fill="#194AFF" fill-rule="nonzero">
            <g transform="translate(0.000000, 1.000000)" id="Sklinet_logo_verzia_A">
                <g transform="translate(713.000000, 232.000000)">
                    <path d="M174.0816,18.8316 C174.202943,19.4466807 174.256064,20.0732702 174.24,20.7 C174.24,21.18 174.2268,21.5688 174.2004,21.8664 C174.178749,22.1363501 174.13906,22.404549 174.0816,22.6692 L157.5594,39.1734 C157.495612,38.9380224 157.455809,38.6967932 157.4406,38.4534 C157.413,38.1426 157.3998,37.6938 157.401,37.107 C157.394637,36.5163731 157.447704,35.926604 157.5594,35.3466 L172.1394,20.7666 L157.5594,3.9582 C157.464941,3.32438917 157.425194,2.68362577 157.4406,2.043 C157.441978,1.47098694 157.481667,0.899708438 157.5594,0.333 L174.0816,18.8316 Z" id="Path"></path>
                    <path d="M32.4972,0.315 C32.8844298,0.213276611 33.2830333,0.161258548 33.6834,0.1602 C34.135818,0.164026326 34.5865486,0.215917666 35.028,0.315 L22.0554,39.1698 C21.6293295,39.2764953 21.1914091,39.3285134 20.7522,39.3248054 C20.3518178,39.3237768 19.9531845,39.2717548 19.566,39.1698 L32.4972,0.315 Z" id="Path"></path>
                    <path d="M16.8606,0.315 C16.9383328,0.881708438 16.9780216,1.45298694 16.9794,2.025 C16.9948059,2.66562577 16.9550593,3.30638917 16.8606,3.9402 L2.2806,20.7486 L16.8606,35.3286 C16.9722963,35.908604 17.0253635,36.4983731 17.019,37.089 C17.019,37.6758 17.0058,38.1246 16.9794,38.4354 C16.964191,38.6787932 16.9243882,38.9200224 16.8606,39.1554 L0.3384,22.6512 C0.280939731,22.386549 0.241251093,22.1183501 0.2196,21.8484 C0.1932,21.5628 0.18,21.18 0.18,20.7 C0.164200872,20.0744705 0.217320902,19.4491028 0.3384,18.8352 L16.8606,0.315 Z" id="Path"></path>
                    <path d="M34.8606,30.24 C35.2206,30.3408 35.5806,30.4524 35.9532,30.5784 C36.3665273,30.7147206 36.7871909,30.8276988 37.2132,30.9168 C37.6776,31.0176 38.1984,31.1058 38.7756,31.1814 C39.4373971,31.2604414 40.1035161,31.2977152 40.77,31.293 C41.8219896,31.3152313 42.8707842,31.1693966 43.8768,30.861 C44.6625391,30.6190068 45.3928632,30.224485 46.026,29.7 C46.5766573,29.2302217 47.0084073,28.6368739 47.286,27.9684 C47.5663009,27.2831052 47.7070485,26.5487701 47.7,25.8084 C47.7146888,25.1509546 47.6191676,24.4956914 47.4174,23.8698 C47.2133079,23.3041069 46.8784048,22.7946595 46.44,22.383 C45.867391,21.8574585 45.2201851,21.4195179 44.5194,21.0834 C43.7022,20.6694 42.6792,20.2242 41.4504,19.7478 C40.572,19.4214 39.7374,19.0698 38.9466,18.693 C38.1876774,18.3371513 37.4838736,17.8740109 36.8568,17.3178 C36.2516823,16.7767731 35.7645513,16.1168484 35.4258,15.3792 C35.0742,14.6268 34.8984,13.6854 34.8984,12.555 C34.8984,10.5234 35.6328,8.8794 37.1016,7.623 C38.5704,6.3666 40.71,5.739 43.5204,5.74019828 C44.073,5.74019828 44.6328,5.7654 45.1962,5.8158 C45.7596,5.8662 46.2888,5.9292 46.7784,6.0048 C47.268,6.0804 47.7198,6.1668 48.1338,6.2676 C48.5478,6.3684 48.8808,6.4476 49.131,6.5304 C49.0806,6.9084 49.0122,7.29 48.924,7.6788 C48.8397821,8.05573512 48.7327858,8.42721679 48.6036,8.7912 C47.8462216,8.55491591 47.0725511,8.3744329 46.2888,8.2512 C45.3626653,8.08997632 44.4244616,8.00807921 43.4844,8.0064 C41.4,8.0064 39.906,8.4336 39.0024,9.288 C38.105583,10.1227573 37.6117167,11.3033141 37.647,12.528 C37.6323137,13.143981 37.7747942,13.7535494 38.061,14.2992 C38.3485465,14.8131028 38.7395873,15.2617577 39.2094,15.6168 C39.7533065,16.0252401 40.3406688,16.3723453 40.9608,16.6518 C41.6388,16.965 42.3666,17.2722 43.1442,17.5734 C44.199,18.0018 45.1842,18.4416 46.0998,18.8928 C46.9563702,19.3038939 47.7493021,19.8361524 48.4542,20.4732 C49.1040674,21.073384 49.628391,21.7965467 49.9968,22.6008 C50.3973945,23.5333281 50.5902568,24.5418626 50.562,25.5564 C50.5785277,26.7459916 50.3391188,27.9252342 49.86,29.0142 C49.4103658,30.0111723 48.7320161,30.8880935 47.88,31.5738 C46.9532119,32.302547 45.8911362,32.8403146 44.7552,33.156 C43.4081763,33.5333092 42.0139379,33.7151664 40.6152,33.696 C39.3773759,33.7186529 38.1405946,33.6112641 36.9252,33.3756 C35.946,33.1632 35.0298,32.919 34.1766,32.643 C34.234166,32.2291252 34.3220015,31.8200284 34.4394,31.419 C34.5557029,31.0178033 34.6963639,30.6240725 34.8606,30.24 L34.8606,30.24 Z" id="Path"></path>
                    <path d="M52.7058,19.3932 L62.2332,6.1776 C62.433,6.1524 62.64,6.1344 62.8542,6.1218 C63.0684,6.1092 63.2736,6.102 63.4752,6.102 C63.7506,6.102 64.0152,6.102 64.2654,6.1218 C64.5156,6.1416 64.7802,6.1524 65.0556,6.1776 L55.7946,19.1376 L66.4866,33.2568 C66.2112,33.282 65.9286,33.3 65.6406,33.3144 C65.3526,33.3288 65.0682,33.3324 64.7928,33.3324 C64.566,33.3324 64.3338,33.3324 64.0962,33.3144 C63.8586,33.2964 63.6246,33.282 63.3996,33.2568 L52.7058,19.3932 Z" id="Path"></path>
                    <path d="M70.6662,6.2154 C70.859447,6.18626039 71.0541335,6.16763299 71.2494,6.1596 C71.487,6.147 71.7336,6.1398 71.9838,6.1398 C72.234,6.1398 72.4356,6.1398 72.6624,6.1596 C72.8892,6.1794 73.089,6.1902 73.2636,6.2154 L73.2636,30.915 L84.8232,30.915 C84.852249,31.1082582 84.870876,31.3029397 84.879,31.4982 C84.8916,31.7376 84.8988,31.9446 84.8988,32.121 C84.8988,32.2974 84.8988,32.5278 84.879,32.742 C84.8696226,32.9228339 84.8509982,33.1030696 84.8232,33.282 L70.6662,33.282 L70.6662,6.2154 Z" id="Path"></path>
                    <path d="M89.379,6.1776 C89.559,6.1524 89.7678,6.1344 90.018,6.1218 C90.2682,6.1092 90.495,6.102 90.6966,6.102 C90.8982,6.102 91.1484,6.102 91.3734,6.1218 C91.5984,6.1416 91.8018,6.1524 91.9764,6.1776 L91.9764,33.2496 C91.7964,33.2748 91.6002,33.2928 91.3734,33.3072 C91.1466,33.3216 90.9216,33.3252 90.6966,33.3252 C90.4716,33.3252 90.1998,33.3252 89.9622,33.3072 C89.7669569,33.2977947 89.5723108,33.2785704 89.379,33.2496 L89.379,6.1776 Z" id="Path"></path>
                    <path d="M96.8148,6.1776 C96.9948,6.1524 97.2216,6.1344 97.5114,6.1218 C97.8012,6.1092 98.0514,6.102 98.2458,6.102 C98.4402,6.102 98.6832,6.102 98.9658,6.1218 C99.2484,6.1416 99.468,6.1524 99.6444,6.1776 L112.6044,28.845 L112.6044,6.1776 C112.7844,6.1524 112.9752,6.1344 113.1894,6.1218 C113.4036,6.1092 113.6214,6.102 113.8482,6.102 C114.075,6.102 114.2676,6.102 114.507,6.1218 C114.7464,6.1416 114.9516,6.1524 115.128,6.1776 L115.128,33.2496 C114.909564,33.2803535 114.689659,33.2995801 114.4692,33.3072 C114.1794,33.318 113.9292,33.3252 113.697,33.3252 C113.4648,33.3252 113.2578,33.3252 112.977,33.3072 C112.6962,33.2892 112.473,33.2748 112.2984,33.2496 L99.3384,10.7712 L99.3384,25.9344 C99.1584,25.9596 98.9676,25.9794 98.7552,25.992 C98.5428,26.0046 98.3214,26.01 98.0964,26.01 C97.8714,26.01 97.6068,26.01 97.3764,25.992 C97.1870954,25.9830565 96.998417,25.9638281 96.8112,25.9344 L96.8148,6.1776 Z" id="Path"></path>
                    <path d="M119.9502,6.1776 L134.4474,6.1776 C134.475223,6.3565272 134.493848,6.53676413 134.5032,6.7176 C134.5158,6.93 134.523,7.137 134.523,7.3386 C134.523,7.5186 134.523,7.7202 134.5032,7.9596 C134.495167,8.1548665 134.47654,8.34955296 134.4474,8.5428 L122.5494,8.5428 L122.5494,17.6922 L131.0094,17.6922 C131.037889,17.8710876 131.057115,18.051328 131.067,18.2322 C131.0796,18.4464 131.085,18.6534 131.085,18.855 C131.085,19.035 131.085,19.2366 131.067,19.476 C131.058403,19.6713016 131.039174,19.8659899 131.0094,20.0592 L122.5494,20.0592 L122.5494,30.8592 L134.7894,30.8592 C134.817223,31.0381272 134.835848,31.2183641 134.8452,31.3992 C134.8578,31.6116 134.865,31.8186 134.865,32.0202 C134.865,32.2218 134.865,32.4036 134.8452,32.6412 C134.83726,32.8364728 134.818632,33.0311643 134.7894,33.2244 L119.9502,33.2244 L119.9502,6.1776 Z" id="Path"></path>
                    <path d="M144.5004,8.4744 L137.2338,8.4744 C137.20424,8.29565635 137.185008,8.11535727 137.1762,7.9344 C137.1636,7.722 137.1582,7.515 137.1582,7.3134 C137.1582,7.1118 137.1582,6.9372 137.1762,6.7104 C137.184436,6.52104332 137.203668,6.33232521 137.2338,6.1452 L154.3644,6.1452 C154.3918,6.31995731 154.410423,6.49597814 154.4202,6.6726 C154.4328,6.8742 154.44,7.074 154.44,7.2756 C154.44,7.4772 154.44,7.659 154.4202,7.8966 C154.41226,8.09187283 154.393632,8.28656432 154.3644,8.4798 L147.0978,8.4798 L147.0978,33.2118 C146.9178,33.237 146.7216,33.255 146.4948,33.2694 C146.268,33.2838 146.043,33.2874 145.818,33.2874 C145.593,33.2874 145.3212,33.2874 145.0836,33.2694 C144.88835,33.2600896 144.693699,33.2408649 144.5004,33.2118 L144.5004,8.4744 Z" id="Path"></path>
                </g>
            </g>
        </g>
    </g>
</svg>